<mxfile host="app.diagrams.net" agent="Mozilla/5.0 (Windows NT 10.0; Win64; x64) AppleWebKit/537.36 (KHTML, like Gecko) Chrome/131.0.0.0 Safari/537.36" version="26.0.6">
  <diagram name="‫עמוד-1‬" id="7hn0Jkic4SkTh_8gitPx">
    <mxGraphModel dx="1434" dy="746" grid="1" gridSize="10" guides="1" tooltips="1" connect="1" arrows="1" fold="1" page="1" pageScale="1" pageWidth="827" pageHeight="1169" math="0" shadow="0">
      <root>
        <mxCell id="0" />
        <mxCell id="1" parent="0" />
        <mxCell id="onAZ_GbxxMarlTd7Yk06-3" value="" style="edgeStyle=orthogonalEdgeStyle;rounded=0;orthogonalLoop=1;jettySize=auto;html=1;" edge="1" parent="1" source="onAZ_GbxxMarlTd7Yk06-1" target="onAZ_GbxxMarlTd7Yk06-2">
          <mxGeometry relative="1" as="geometry" />
        </mxCell>
        <mxCell id="onAZ_GbxxMarlTd7Yk06-1" value="start" style="ellipse;whiteSpace=wrap;html=1;" vertex="1" parent="1">
          <mxGeometry x="170" y="240" width="120" height="80" as="geometry" />
        </mxCell>
        <mxCell id="onAZ_GbxxMarlTd7Yk06-2" value="" style="verticalLabelPosition=bottom;verticalAlign=top;html=1;shape=card;whiteSpace=wrap;size=20;arcSize=12;" vertex="1" parent="1">
          <mxGeometry x="180" y="350" width="100" height="60" as="geometry" />
        </mxCell>
        <mxCell id="onAZ_GbxxMarlTd7Yk06-6" value="" style="edgeStyle=orthogonalEdgeStyle;rounded=0;orthogonalLoop=1;jettySize=auto;html=1;" edge="1" parent="1" source="onAZ_GbxxMarlTd7Yk06-4" target="onAZ_GbxxMarlTd7Yk06-5">
          <mxGeometry relative="1" as="geometry" />
        </mxCell>
        <mxCell id="onAZ_GbxxMarlTd7Yk06-4" value="price" style="text;html=1;align=center;verticalAlign=middle;whiteSpace=wrap;rounded=0;" vertex="1" parent="1">
          <mxGeometry x="200" y="365" width="60" height="30" as="geometry" />
        </mxCell>
        <mxCell id="onAZ_GbxxMarlTd7Yk06-8" value="" style="edgeStyle=orthogonalEdgeStyle;rounded=0;orthogonalLoop=1;jettySize=auto;html=1;" edge="1" parent="1" source="onAZ_GbxxMarlTd7Yk06-5" target="onAZ_GbxxMarlTd7Yk06-7">
          <mxGeometry relative="1" as="geometry" />
        </mxCell>
        <mxCell id="onAZ_GbxxMarlTd7Yk06-5" value="price - (price / 1.18)" style="strokeWidth=2;html=1;shape=mxgraph.flowchart.document2;whiteSpace=wrap;size=0.25;" vertex="1" parent="1">
          <mxGeometry x="125" y="450" width="210" height="150" as="geometry" />
        </mxCell>
        <mxCell id="onAZ_GbxxMarlTd7Yk06-7" value="stop" style="ellipse;whiteSpace=wrap;html=1;" vertex="1" parent="1">
          <mxGeometry x="170" y="630" width="120" height="80" as="geometry" />
        </mxCell>
      </root>
    </mxGraphModel>
  </diagram>
</mxfile>
